<?xml version="1.0" encoding="utf-8"?>
<!-- Generator: Adobe Illustrator 19.1.0, SVG Export Plug-In . SVG Version: 6.00 Build 0)  -->
<svg version="1.1" id="Livello_1" xmlns="http://www.w3.org/2000/svg" xmlns:xlink="http://www.w3.org/1999/xlink" x="0px" y="0px"
	 viewBox="0 0 300 53.6" style="enable-background:new 0 0 300 53.6;" xml:space="preserve">
<style type="text/css">
	.st0{fill:#A72E46;}
	.st1{fill:#4E6B82;}
	.st2{font-family:'KohinoorBangla-Semibold';}
	.st3{font-size:12.4903px;}
</style>
<g>
	<path id="XMLID_85_" class="st0" d="M39.5,41.8c2.2-3.1,3.6-6.8,3.6-10.9c0-9-6.4-16.4-14.8-18.2L39.5,41.8z"/>
	<path id="XMLID_84_" class="st1" d="M31.8,40.1c-4.1,0-10.5-0.5-9.3,3.1c-5-1.4-4.8-6-2.3-8c2.3-2,6.1-1.6,9.1-1.6l-4.8-12.3
		c-4.2,10.7-6.3,16.1-9.8,25.3c2.9,1.8,6.3,2.9,9.9,2.9s6.9-1.1,9.7-2.8L31.8,40.1z"/>
	<path id="XMLID_82_" class="st0" d="M19.3,16.2c0.6-1.7,1.6-3,2.8-3.7C13,13.7,6,21.5,6,30.9c0,4.1,1.3,7.7,3.5,10.8L19.3,16.2z"/>
	<g id="XMLID_72_">
		<path id="XMLID_80_" class="st0" d="M50.6,27.7l3,13.5l2.8-9.8c0.6-2.3,1.9-3.8,4.4-3.6l3.8,13.5l2.2-9.8c0.6-2.6,2-4,4.8-3.6
			l-4.8,21H63l-3.8-13.6l-3.8,13.6h-3.8l-4.8-21C46.7,27.7,50.6,27.7,50.6,27.7z"/>
		<path id="XMLID_78_" class="st0" d="M77.1,27.7l3,13.5l2.8-9.8c0.6-2.3,1.9-3.8,4.4-3.6l3.8,13.5l2.2-9.8c0.6-2.6,2-4,4.8-3.6
			l-4.8,21h-3.8l-3.8-13.6l-3.8,13.6H78l-4.8-21C73.2,27.7,77.1,27.7,77.1,27.7z"/>
	</g>
	<path id="XMLID_71_" class="st1" d="M26,8.8c0.2-0.5,0.5-1.1-0.2-1.4c0.1-0.2,0.1-0.5,0.1-0.7c-0.3-0.4-0.6-1-0.9-1.4
		c0-0.1,0.1-0.1,0.1-0.2c0.3,0.1,0.6,0.2,0.9,0.4c0.9,1,1.9,1.1,3.1,0.7c1-0.3,1.9-0.5,3-0.7c-1-1.8-1.9-3.5-2.9-5.3L29.3,0
		c0.3,0.2,0.6,0.3,0.9,0.5c1.4,1.3,2.8,2.7,4.2,4.1C34.7,5,35,5.1,35.6,5c1-0.1,1.8-0.3,2.8-0.4c0.5,0,1.1,0.1,1.5,0.2
		c0,0.1,0,0.2,0.1,0.3c-0.4,0.2-0.7,0.4-1.3,0.6c-1,0.3-2,0.5-3.1,0.7c-0.4,0.1-0.7,0.3-1.1,0.7c-0.7,1.3-1.6,2.6-2.5,3.8
		c-0.2,0.3-0.4,0.5-0.7,0.7c-0.1,0-0.1-0.1-0.2-0.1c0.4-1.5,0.9-3,1.3-4.6c-1.1,0.1-2,0.1-2.9,0.2c-0.2,0-0.4,0.1-0.7,0.1
		c-1,0-1.7,0.3-2.2,1.3c-0.1,0.2-0.3,0.4-0.4,0.5C26,9.3,25.8,9.1,26,8.8z"/>
	<path id="XMLID_61_" class="st0" d="M43,30c0,0,0,0.4,0,1.2s0,1.8-0.2,3.3c-0.1,0.7-0.3,1.5-0.4,2.3c-0.2,0.9-0.4,1.7-0.9,2.7
		c-0.6,1.9-1.8,3.8-3.3,5.9c-1.5,1.9-3.5,3.8-6,5.3c-2.5,1.5-5.3,2.6-8.5,2.8c-0.7,0-1.6,0.1-2.3,0.1c-0.7-0.1-1.5,0-2.3-0.2
		c-0.9-0.1-1.7-0.2-2.5-0.4c-0.9-0.2-1.6-0.4-2.3-0.7c-3.1-1.2-6-3.1-8.2-5.7c-2.1-2.8-3.8-5.8-4.8-8.9s-1.4-6.4-1.1-9.5
		c0.4-6.3,3.5-11.6,7.2-15.1c1.8-1.7,3.7-3,5.6-3.7c1.8-0.9,3.5-1.3,4.9-1.6c1.3-0.2,2.3-0.3,3.1-0.3s1.2,0,1.2,0s-0.4,0-1.2,0.1
		c-0.7,0-1.8,0.3-3.2,0.5c-1.3,0.4-3,1-4.6,1.9c-1.7,1-3.4,2.2-5,4s-3.1,3.8-4.2,6.2c-1.1,2.5-1.7,5.2-1.9,8c-0.2,3,0.2,6,1.2,8.9
		c1,2.9,2.6,5.6,4.6,7.8c2,2.3,4.6,4.1,7.4,5.2c0.6,0.3,1.4,0.5,2.1,0.7c0.7,0.2,1.4,0.3,2.1,0.4c0.6,0.2,1.5,0.1,2.2,0.2
		c0.6,0.1,1.4,0,2.1,0c2.9-0.2,5.6-1.1,7.9-2.3c2.3-1.3,4.3-3,5.8-4.7c1.5-1.8,2.7-3.6,3.5-5.3c0.4-0.9,0.7-1.7,1-2.5
		c0.2-0.9,0.4-1.5,0.6-2.2c0.2-1.4,0.4-2.5,0.5-3.2C43,30.3,43,30,43,30z"/>
	<text id="XMLID_14_" transform="matrix(1 0 0 1 100.6103 48.221)" class="st0 st2 st3">A WONDERFUL WORLD AGENCY srl</text>
	<rect x="100.9" y="49.9" class="st1" width="199.1" height="0.9"/>
</g>
</svg>
